<svg version="1.0" xmlns="http://www.w3.org/2000/svg"
           width="56px" height="56px" viewBox="0 0 300.000000 300.000000"
           preserveAspectRatio="xMidYMid meet">
        <metadata>
          Created by potrace 1.11, written by Peter Selinger 2001-2013
        </metadata>
        <g transform="translate(0.000000,300.000000) scale(0.100000,-0.100000)"
           fill="#000000" stroke="none">
          <path fill="#fff" d="M1277 2985 c-634 -103 -1113 -559 -1249 -1189 -18 -83 -22 -134 -22
			-291 -1 -180 1 -201 37 -385 21 -107 61 -319 90 -470 l53 -275 95 -3 95 -3 11
			-62 c6 -34 19 -105 29 -157 14 -77 22 -100 45 -122 l27 -28 247 0 c273 0 293
			4 348 70 57 67 57 62 -47 617 -105 557 -107 563 -186 603 -68 35 -111 27 -325
			-55 -238 -91 -255 -99 -269 -136 -10 -27 -12 -20 -33 88 -12 65 -25 162 -29
			216 l-7 97 121 0 c69 0 132 5 146 11 33 15 52 59 59 135 21 215 172 479 360
			629 553 442 1369 193 1581 -484 15 -46 29 -111 33 -145 7 -76 26 -120 59 -135
			14 -6 77 -11 146 -11 l121 0 -7 -97 c-4 -54 -17 -151 -29 -216 -21 -108 -23
			-115 -34 -88 -13 37 -30 45 -268 136 -214 82 -257 90 -325 55 -79 -40 -81 -46
			-186 -603 -104 -555 -104 -550 -47 -617 55 -66 75 -70 348 -70 l247 0 27 28
			c23 22 31 45 45 122 10 52 23 123 29 157 l11 62 95 3 95 3 53 275 c29 151 69
			363 90 470 36 184 38 205 37 385 0 157 -4 208 -22 291 -130 601 -574 1047
			-1171 1175 -128 27 -398 34 -524 14z"/>
        </g>
      </svg>
